<svg width="28" height="28" viewBox="0 0 28 28" fill="none" xmlns="http://www.w3.org/2000/svg">
<path d="M12.7342 21.7665L12.7342 21.7664L23.1213 11.3793C23.6692 10.8314 23.6692 9.94288 23.1213 9.39491L21.844 8.1176C21.844 8.11759 21.844 8.11758 21.8439 8.11757C21.296 7.56952 20.4075 7.56957 19.8595 8.11757L11.7419 16.235L8.14054 12.6336C7.59256 12.0857 6.70409 12.0857 6.15608 12.6336L6.15605 12.6336L4.87872 13.911C4.33075 14.459 4.33075 15.3474 4.87872 15.8954L10.7497 21.7664C11.2977 22.3144 12.1861 22.3144 12.7342 21.7665ZM27.5 14C27.5 21.4559 21.4559 27.5 14 27.5C6.54414 27.5 0.5 21.4559 0.5 14C0.5 6.54414 6.54414 0.5 14 0.5C21.4559 0.5 27.5 6.54414 27.5 14Z" fill="#4F53D1" stroke="#4F53D1"/>
</svg>
