<svg width="28" height="28" viewBox="0 0 28 28" fill="none" xmlns="http://www.w3.org/2000/svg">
<path fill-rule="evenodd" clip-rule="evenodd" d="M14 28C21.732 28 28 21.732 28 14C28 6.26801 21.732 0 14 0C6.26801 0 0 6.26801 0 14C0 21.732 6.26801 28 14 28ZM8.83355 14.6618C9.54128 8.62068 9.70355 7.47963 9.88676 7.25981L10.1032 7H15.4767H20.85V7.33213C20.85 7.7485 20.5089 8.38469 20.0794 8.76959C19.4073 9.3717 19.1813 9.4036 15.5876 9.4036C12.522 9.4036 12.2851 9.41725 12.2799 9.59479C12.2767 9.6999 12.1828 10.4865 12.071 11.3429L11.8677 12.8997H15.0894C17.7809 12.8997 18.3215 12.9255 18.3747 13.0564C18.4768 13.3076 18.1909 15.234 18.0379 15.3257C17.9613 15.3716 16.2581 15.4148 14.253 15.4216C10.8537 15.433 10.6366 15.4452 11.0412 15.6019C11.3651 15.7274 11.4753 15.8337 11.4753 16.0209C11.4753 16.3298 10.9224 21.3402 10.8342 21.8313L10.7703 22.1864H9.38677C8.14734 22.1864 8.00278 22.1665 8.00001 21.9952C7.99827 21.89 8.37337 18.59 8.83355 14.6618Z" fill="#C0C0C8"/>
</svg>
