<svg width="28" height="28" viewBox="0 0 28 28" fill="none" xmlns="http://www.w3.org/2000/svg">
<mask id="path-1-inside-1" fill="white">
<path fill-rule="evenodd" clip-rule="evenodd" d="M14 28C21.732 28 28 21.732 28 14C28 6.26801 21.732 0 14 0C6.26801 0 0 6.26801 0 14C0 21.732 6.26801 28 14 28ZM8.83355 14.6618C9.54128 8.62068 9.70355 7.47963 9.88676 7.25981L10.1032 7H15.4767H20.85V7.33213C20.85 7.7485 20.5089 8.38469 20.0794 8.76959C19.4073 9.3717 19.1813 9.4036 15.5876 9.4036C12.522 9.4036 12.2851 9.41725 12.2799 9.59479C12.2767 9.6999 12.1828 10.4865 12.071 11.3429L11.8677 12.8997H15.0894C17.7809 12.8997 18.3215 12.9255 18.3747 13.0564C18.4768 13.3076 18.1909 15.234 18.0379 15.3257C17.9613 15.3716 16.2581 15.4148 14.253 15.4216C10.8537 15.433 10.6366 15.4452 11.0412 15.6019C11.3651 15.7274 11.4753 15.8337 11.4753 16.0209C11.4753 16.3298 10.9224 21.3402 10.8342 21.8313L10.7703 22.1864H9.38677C8.14734 22.1864 8.00278 22.1665 8.00001 21.9952C7.99827 21.89 8.37337 18.59 8.83355 14.6618Z"/>
</mask>
<path fill-rule="evenodd" clip-rule="evenodd" d="M14 28C21.732 28 28 21.732 28 14C28 6.26801 21.732 0 14 0C6.26801 0 0 6.26801 0 14C0 21.732 6.26801 28 14 28ZM8.83355 14.6618C9.54128 8.62068 9.70355 7.47963 9.88676 7.25981L10.1032 7H15.4767H20.85V7.33213C20.85 7.7485 20.5089 8.38469 20.0794 8.76959C19.4073 9.3717 19.1813 9.4036 15.5876 9.4036C12.522 9.4036 12.2851 9.41725 12.2799 9.59479C12.2767 9.6999 12.1828 10.4865 12.071 11.3429L11.8677 12.8997H15.0894C17.7809 12.8997 18.3215 12.9255 18.3747 13.0564C18.4768 13.3076 18.1909 15.234 18.0379 15.3257C17.9613 15.3716 16.2581 15.4148 14.253 15.4216C10.8537 15.433 10.6366 15.4452 11.0412 15.6019C11.3651 15.7274 11.4753 15.8337 11.4753 16.0209C11.4753 16.3298 10.9224 21.3402 10.8342 21.8313L10.7703 22.1864H9.38677C8.14734 22.1864 8.00278 22.1665 8.00001 21.9952C7.99827 21.89 8.37337 18.59 8.83355 14.6618Z" fill="#4F53D1"/>
<path d="M9.88676 7.25981L10.6549 7.90005L10.6551 7.89986L9.88676 7.25981ZM8.83355 14.6618L7.84034 14.5454L7.84034 14.5454L8.83355 14.6618ZM10.1032 7V6H9.63471L9.33486 6.35995L10.1032 7ZM20.85 7H21.85V6H20.85V7ZM20.0794 8.76959L20.7467 9.51442L20.7468 9.51431L20.0794 8.76959ZM12.2799 9.59479L13.2794 9.62451L13.2794 9.62411L12.2799 9.59479ZM12.071 11.3429L11.0794 11.2134L11.0794 11.2134L12.071 11.3429ZM11.8677 12.8997L10.8761 12.7703L10.7287 13.8997H11.8677V12.8997ZM18.3747 13.0564L19.3011 12.6799L19.301 12.6796L18.3747 13.0564ZM18.0379 15.3257L18.5517 16.1836L18.5523 16.1833L18.0379 15.3257ZM14.253 15.4216L14.2563 16.4215H14.2563L14.253 15.4216ZM11.0412 15.6019L10.6799 16.5344L10.6801 16.5344L11.0412 15.6019ZM10.8342 21.8313L11.8184 22.0084L11.8184 22.008L10.8342 21.8313ZM10.7703 22.1864V23.1864H11.6064L11.7545 22.3634L10.7703 22.1864ZM8.00001 21.9952L8.99987 21.979L8.99987 21.9787L8.00001 21.9952ZM27 14C27 21.1797 21.1797 27 14 27V29C22.2843 29 29 22.2843 29 14H27ZM14 1C21.1797 1 27 6.8203 27 14H29C29 5.71573 22.2843 -1 14 -1V1ZM1 14C1 6.8203 6.8203 1 14 1V-1C5.71573 -1 -1 5.71573 -1 14H1ZM14 27C6.8203 27 1 21.1797 1 14H-1C-1 22.2843 5.71573 29 14 29V27ZM9.11859 6.61956C8.99016 6.77365 8.91977 6.93728 8.87845 7.05058C8.83429 7.17167 8.79921 7.3044 8.76861 7.44097C8.7074 7.71423 8.64332 8.09925 8.56682 8.63696C8.41278 9.71966 8.19375 11.5288 7.84034 14.5454L9.82675 14.7782C10.1811 11.7537 10.3971 9.97174 10.5469 8.91867C10.6223 8.3885 10.6774 8.06947 10.7202 7.87817C10.7417 7.78246 10.7549 7.74279 10.7574 7.7358C10.7628 7.72103 10.7376 7.80092 10.6549 7.90005L9.11859 6.61956ZM9.33486 6.35995L9.11843 6.61976L10.6551 7.89986L10.8715 7.64005L9.33486 6.35995ZM15.4767 6H10.1032V8H15.4767V6ZM20.85 6H15.4767V8H20.85V6ZM21.85 7.33213V7H19.85V7.33213H21.85ZM20.7468 9.51431C21.0591 9.23448 21.3206 8.8831 21.5071 8.53514C21.6836 8.20585 21.85 7.77344 21.85 7.33213H19.85C19.85 7.30724 19.8536 7.32178 19.8352 7.38089C19.8182 7.43571 19.7886 7.50771 19.7444 7.59019C19.6531 7.76064 19.5293 7.91981 19.412 8.02488L20.7468 9.51431ZM15.5876 10.4036C17.3474 10.4036 18.3915 10.3982 19.0689 10.3026C19.4341 10.251 19.7533 10.1668 20.0538 10.0135C20.3474 9.86369 20.5676 9.67487 20.7467 9.51442L19.4122 8.02477C19.2552 8.16537 19.1951 8.20632 19.145 8.23187C19.1018 8.25389 19.0138 8.29051 18.7894 8.3222C18.2873 8.39306 17.4216 8.4036 15.5876 8.4036V10.4036ZM13.2794 9.62411C13.2768 9.71355 13.2554 9.92451 13.0991 10.1339C12.9534 10.3289 12.7784 10.4043 12.7152 10.4277C12.6267 10.4605 12.6091 10.4445 12.8438 10.431C13.2503 10.4075 14.0383 10.4036 15.5876 10.4036V8.4036C14.0713 8.4036 13.2081 8.40656 12.7284 8.43428C12.52 8.44633 12.2506 8.46701 12.0204 8.55231C11.8864 8.60195 11.668 8.70758 11.4964 8.93735C11.3142 9.18143 11.2842 9.43165 11.2803 9.56547L13.2794 9.62411ZM13.0625 11.4723C13.1188 11.0413 13.1707 10.6268 13.2091 10.3058C13.2433 10.0197 13.2762 9.73459 13.2794 9.62451L11.2803 9.56507C11.2805 9.5601 11.2648 9.72088 11.2232 10.0685C11.1859 10.3811 11.1349 10.7881 11.0794 11.2134L13.0625 11.4723ZM12.8593 13.0292L13.0625 11.4723L11.0794 11.2134L10.8761 12.7703L12.8593 13.0292ZM15.0894 11.8997H11.8677V13.8997H15.0894V11.8997ZM19.301 12.6796C19.1761 12.3726 18.9467 12.2073 18.7945 12.1272C18.6503 12.0513 18.5106 12.0163 18.4208 11.9976C18.2377 11.9596 18.0134 11.9418 17.769 11.9301C17.2621 11.906 16.428 11.8997 15.0894 11.8997V13.8997C16.4422 13.8997 17.2242 13.9064 17.6738 13.9279C17.7835 13.9331 17.8651 13.9388 17.9251 13.9447C17.9547 13.9475 17.9767 13.9502 17.9924 13.9524C18.0084 13.9546 18.0148 13.956 18.014 13.9558C18.0137 13.9557 18.0001 13.953 17.9776 13.9457C17.9559 13.9388 17.9144 13.9241 17.8628 13.897C17.7609 13.8433 17.56 13.7075 17.4484 13.4332L19.301 12.6796ZM18.5523 16.1833C18.8074 16.0303 18.9239 15.8071 18.946 15.7665C18.9911 15.6839 19.0219 15.6051 19.0416 15.5504C19.0823 15.4371 19.1157 15.3118 19.1426 15.198C19.198 14.9639 19.2497 14.6768 19.2911 14.3976C19.3327 14.1175 19.3672 13.823 19.3844 13.5722C19.3928 13.4482 19.3982 13.3192 19.3956 13.2008C19.3942 13.1338 19.3917 12.9027 19.3011 12.6799L17.4483 13.4329C17.4059 13.3286 17.3976 13.2498 17.3971 13.2458C17.395 13.2287 17.3957 13.2259 17.3961 13.2438C17.3968 13.2791 17.3954 13.3425 17.389 13.436C17.3765 13.6198 17.3491 13.8597 17.3128 14.1041C17.2764 14.3494 17.2344 14.5767 17.1963 14.7375C17.1765 14.8211 17.1632 14.8634 17.1594 14.874C17.1568 14.8812 17.1659 14.8534 17.19 14.8092C17.2024 14.7866 17.2278 14.7427 17.2688 14.691C17.3052 14.6449 17.3872 14.5499 17.5236 14.4682L18.5523 16.1833ZM14.2563 16.4215C15.2642 16.4181 16.1988 16.4056 16.894 16.388C17.2404 16.3792 17.5336 16.369 17.7487 16.3577C17.8546 16.3522 17.9522 16.3458 18.0317 16.3381C18.0698 16.3344 18.1184 16.3291 18.1679 16.3209C18.1919 16.3169 18.2308 16.3099 18.2759 16.2983C18.2972 16.2928 18.4191 16.2631 18.5517 16.1836L17.5241 14.4678C17.652 14.3913 17.7659 14.3644 17.7761 14.3618C17.8102 14.353 17.8349 14.3488 17.8418 14.3477C17.8569 14.3452 17.8591 14.3455 17.8394 14.3474C17.8032 14.3509 17.7395 14.3555 17.6437 14.3605C17.4552 14.3704 17.1829 14.38 16.8433 14.3886C16.1664 14.4058 15.2469 14.4182 14.2496 14.4216L14.2563 16.4215ZM11.4025 14.6695C11.3467 14.6478 11.3774 14.6564 11.4301 14.6874C11.4408 14.6936 11.5747 14.7676 11.6934 14.9245C11.7605 15.0131 11.8629 15.1808 11.8868 15.4183C11.9131 15.6803 11.8326 15.9148 11.7101 16.0877C11.5189 16.3573 11.2585 16.4348 11.2473 16.4386C11.2123 16.4507 11.1852 16.4573 11.1711 16.4606C11.1561 16.464 11.1464 16.4656 11.1438 16.466C11.1431 16.4661 11.1781 16.4612 11.2767 16.4557C11.6715 16.4335 12.5395 16.4273 14.2563 16.4215L14.2496 14.4216C12.5673 14.4272 11.627 14.4329 11.1646 14.4588C11.049 14.4653 10.9291 14.4747 10.8229 14.4919C10.7725 14.5001 10.6891 14.5156 10.5971 14.5472C10.5566 14.5612 10.2781 14.6494 10.0787 14.9307C9.95193 15.1094 9.86981 15.35 9.89678 15.6183C9.92128 15.8621 10.0266 16.0363 10.0988 16.1316C10.2277 16.3019 10.3804 16.3903 10.4172 16.4119C10.5222 16.4736 10.6346 16.5168 10.6799 16.5344L11.4025 14.6695ZM12.4753 16.0209C12.4753 15.6842 12.3569 15.3416 12.0742 15.0687C11.8547 14.8569 11.5869 14.7409 11.4024 14.6694L10.6801 16.5344C10.7376 16.5567 10.7618 16.5692 10.7661 16.5715C10.771 16.5742 10.7346 16.5554 10.6852 16.5077C10.6301 16.4545 10.5683 16.3743 10.5252 16.2673C10.4833 16.1631 10.4753 16.0735 10.4753 16.0209H12.4753ZM11.8184 22.008C11.8703 21.7191 12.0353 20.2944 12.1818 18.9674C12.2566 18.2895 12.3287 17.6161 12.3823 17.0917C12.4314 16.6113 12.4753 16.1645 12.4753 16.0209H10.4753C10.4753 16.0023 10.4728 16.0578 10.4555 16.2482C10.4407 16.4105 10.4191 16.6294 10.3927 16.8884C10.3398 17.4057 10.2683 18.0734 10.1938 18.7481C10.0418 20.1263 9.88624 21.4523 9.84993 21.6545L11.8184 22.008ZM11.7545 22.3634L11.8184 22.0084L9.84999 21.6542L9.7861 22.0093L11.7545 22.3634ZM9.38677 23.1864H10.7703V21.1864H9.38677V23.1864ZM7.00014 22.0114C7.00341 22.2132 7.06296 22.601 7.42892 22.8861C7.68651 23.0868 7.97685 23.1296 8.0931 23.1456C8.36947 23.1837 8.79974 23.1864 9.38677 23.1864V21.1864C9.07708 21.1864 8.84637 21.1851 8.67175 21.1809C8.48977 21.1765 8.40274 21.1694 8.36619 21.1644C8.34964 21.1621 8.37082 21.1637 8.4124 21.1768C8.45255 21.1893 8.55008 21.2243 8.65821 21.3085C8.78011 21.4035 8.88033 21.5339 8.94059 21.6876C8.99425 21.8245 8.9992 21.9375 8.99987 21.979L7.00014 22.0114ZM7.84034 14.5454C7.61016 16.5104 7.4012 18.3186 7.24996 19.6492C7.17436 20.3143 7.11306 20.8611 7.07072 21.2488C7.04958 21.4423 7.03295 21.5981 7.02159 21.7097C7.01595 21.7652 7.0113 21.8126 7.008 21.8496C7.00758 21.8542 6.99894 21.9387 7.00014 22.0117L8.99987 21.9787C9.00086 22.0385 8.99494 22.0849 9.00005 22.0277C9.00227 22.0028 9.00596 21.9648 9.01131 21.9122C9.02192 21.8079 9.03792 21.6579 9.05889 21.4659C9.10077 21.0825 9.16168 20.5391 9.23716 19.8751C9.38808 18.5473 9.59676 16.7415 9.82676 14.7781L7.84034 14.5454Z" fill="#4F53D1" mask="url(#path-1-inside-1)"/>
</svg>
