<svg width="28" height="28" viewBox="0 0 28 28" fill="none" xmlns="http://www.w3.org/2000/svg">
<path fill-rule="evenodd" clip-rule="evenodd" d="M14 28C21.732 28 28 21.732 28 14C28 6.26801 21.732 0 14 0C6.26801 0 0 6.26801 0 14C0 21.732 6.26801 28 14 28ZM6.56625 6.45902L12.137 5L14.0571 6.97064L16.0078 5.03178L21.5551 6.58157L23 12.2086L21.0489 14.1474L22.9686 16.1181L21.4338 21.7206L15.863 23.1796L13.9429 21.2086L11.9914 23.1478L6.44486 21.598L5 15.9714L6.95111 14.0326L5.03102 12.0611L6.56625 6.45902ZM11.6529 6.76768L8.71841 7.53664L11.0647 9.9446L12.9362 8.08501L11.6529 6.76768ZM16.4643 6.80712L15.1603 8.10263L17.0015 9.99285L19.3861 7.62356L16.4643 6.80712ZM7.59752 8.65063L6.78912 11.6012L8.07199 12.9182L9.94307 11.0586L7.59752 8.65063ZM20.4886 8.75517L18.104 11.1252L19.9456 13.0151L21.2492 11.7192L20.4886 8.75517ZM14.0391 9.217L12.1676 11.0766L14.0088 12.9668L15.8799 11.1072L14.0391 9.217ZM11.0463 12.1906L9.17526 14.0502L11.0165 15.9404L12.8883 14.0808L11.0463 12.1906ZM16.9832 12.2392L15.1121 14.0988L16.9529 15.989L18.8244 14.1294L16.9832 12.2392ZM8.05438 15.1642L6.75006 16.4604L7.51136 19.4237L9.8952 17.0548L8.05438 15.1642ZM13.9908 15.2128L12.1194 17.0724L13.9609 18.9626L15.832 17.103L13.9908 15.2128ZM19.9272 15.2618L18.0558 17.1214L20.4025 19.5294L21.2105 16.5788L19.9272 15.2618ZM10.9981 18.1864L8.61386 20.5564L11.5357 21.3729L12.8401 20.0766L10.9981 18.1864ZM16.9349 18.235L15.0638 20.0946L16.3467 21.4119L19.2808 20.6434L16.9349 18.235Z" fill="#4F53D1"/>
</svg>
