<svg width="28" height="28" viewBox="0 0 28 28" fill="none" xmlns="http://www.w3.org/2000/svg">
<path fill-rule="evenodd" clip-rule="evenodd" d="M14 28C21.732 28 28 21.732 28 14C28 6.26801 21.732 0 14 0C6.26801 0 0 6.26801 0 14C0 21.732 6.26801 28 14 28ZM14.3826 10.6233C13.3955 10.6233 12.7795 10.8752 12.7795 11.5284C12.7795 12.2439 13.8248 12.5578 15.12 12.9468C17.2288 13.5801 20 14.4124 20 17.5009C20 20.5062 17.294 22 13.3657 22C11.5885 21.9964 9.83059 21.6736 8.19873 21.051V17.2871C9.78526 18.0486 11.8057 18.6198 13.369 18.6198C14.4223 18.6198 15.1808 18.3708 15.1808 17.5975C15.1808 16.8068 14.0525 16.4474 12.6903 16.0135C10.6162 15.3527 8 14.5193 8 11.7276C8 8.76919 10.5537 7 14.3859 7C15.9525 7 17.5159 7.2109 19.0825 7.7645V11.6983C17.645 11.0129 15.82 10.6233 14.3826 10.6233Z" fill="#C0C0C8"/>
</svg>
